<?xml version="1.0" encoding="UTF-8"?>
<!DOCTYPE svg PUBLIC "-//W3C//DTD SVG 1.1//EN" "http://www.w3.org/Graphics/SVG/1.1/DTD/svg11.dtd">
<svg version="1.1" xmlns="http://www.w3.org/2000/svg" xmlns:xlink="http://www.w3.org/1999/xlink" x="0px" y="0px" width="128" height="128" viewBox="0, 0, 128, 128">
  <g id="Background">
    <rect x="0" y="0" width="128" height="128" fill="#000000" fill-opacity="0"/>
  </g>
  <g id="Background">
    <path d="M18.093,6 L109.907,6 C116.561,6 122,11.439 122,18.093 L122,109.907 C122,116.561 116.561,122 109.907,122 L18.093,122 C11.439,122 6,116.561 6,109.907 L6,18.093 C6,11.439 11.439,6 18.093,6" fill="#727272"/>
    <path d="M80.148,94.603 C78.871,96.074 77.477,97.137 75.951,97.791 C74.43,98.444 72.768,98.873 70.983,99.084 C69.342,99.275 67.831,99.225 66.439,98.924 C65.05,98.621 63.84,98.051 62.803,97.202 C61.767,96.353 60.908,95.223 60.219,93.809 C59.529,92.397 59.067,90.662 58.825,88.597 C58.588,86.538 58.693,84.725 59.136,83.163 C59.584,81.606 60.273,80.285 61.192,79.212 C62.113,78.134 63.214,77.295 64.498,76.683 C65.78,76.07 67.146,75.682 68.603,75.513 C70.33,75.308 71.965,75.394 73.499,75.769 C75.033,76.148 76.467,76.884 77.796,77.993 L74.037,84.149 C73.12,83.364 72.334,82.921 71.69,82.807 C71.047,82.697 70.557,82.665 70.225,82.702 C69.8,82.752 69.389,82.861 68.991,83.03 C68.598,83.204 68.269,83.464 68,83.812 C67.736,84.168 67.548,84.643 67.43,85.246 C67.316,85.843 67.311,86.593 67.416,87.506 C67.617,89.201 68.023,90.356 68.65,90.959 C69.275,91.566 70.225,91.79 71.498,91.643 C71.832,91.603 72.376,91.411 73.133,91.059 C73.897,90.707 74.622,90.082 75.316,89.169 z" fill="#84D0F4"/>
    <path d="M52.696,109.185 L91.16,104.705 L86.68,66.243 L48.216,70.723 z M93.817,108.765 L51.043,113.748 L48.888,113.999 L48.636,111.844 L43.655,69.069 L43.404,66.913 L45.559,66.663 L88.333,61.68 L90.488,61.429 L90.74,63.584 L95.721,106.358 L95.972,108.513 z" fill="#EBECEC"/>
    <path d="M45.052,26.967 C46.64,26.935 48.079,27.072 49.368,27.383 C50.66,27.694 51.77,28.222 52.701,28.966 C53.633,29.711 54.354,30.676 54.867,31.858 C55.377,33.036 55.651,34.47 55.683,36.145 L55.967,50.259 L47.354,50.431 L47.312,48.412 L47.13,48.417 C45.513,50.103 43.454,50.971 40.947,51.021 C40.093,51.034 39.257,50.934 38.448,50.72 C37.631,50.513 36.9,50.149 36.247,49.647 C35.593,49.139 35.068,48.454 34.671,47.586 C34.273,46.727 34.059,45.669 34.037,44.417 C33.995,42.311 34.689,40.566 36.128,39.197 C37.567,37.823 39.804,37.106 42.824,37.046 L46.993,36.964 L46.974,36.091 C46.971,35.849 46.934,35.59 46.869,35.316 C46.801,35.045 46.668,34.786 46.463,34.544 C46.262,34.306 45.951,34.109 45.535,33.967 C45.119,33.822 44.576,33.758 43.905,33.771 C43.297,33.78 42.745,33.817 42.256,33.872 C41.773,33.927 41.32,34.027 40.914,34.178 C40.504,34.32 40.096,34.512 39.708,34.749 C39.316,34.985 38.896,35.292 38.443,35.667 L35.082,30.233 C36.429,28.958 37.905,28.104 39.498,27.669 C41.096,27.241 42.946,27.007 45.052,26.967 z M42.627,43.376 C42.635,43.71 42.749,44.074 42.969,44.467 C43.197,44.86 43.705,45.052 44.499,45.034 C45.171,45.019 45.774,44.823 46.316,44.449 C46.859,44.071 47.125,43.499 47.108,42.737 L47.088,41.681 L44.567,41.731 C43.869,41.746 43.362,41.942 43.065,42.311 C42.769,42.687 42.622,43.043 42.627,43.376" fill="#84D0F4"/>
    <path d="M23.131,16.34 L66.188,15.486 L68.356,15.439 L68.398,17.61 L69.257,60.667 L69.302,62.835 L67.132,62.877 L24.075,63.736 L21.907,63.781 L21.865,61.607 L21.008,18.554 L20.961,16.385 z M64.105,19.865 L25.387,20.637 L26.158,59.35 L64.876,58.579 z" fill="#EBECEC"/>
    <path d="M68.521,28.857 L110.935,35.735 L104.057,78.149 L61.643,71.271 z" fill="#727272"/>
    <path d="M85.998,42.037 C86.456,41.709 86.949,41.457 87.469,41.283 C87.999,41.111 88.507,40.982 89,40.914 C89.493,40.84 89.945,40.81 90.359,40.818 C90.78,40.827 91.109,40.85 91.347,40.892 C93.005,41.171 94.334,41.696 95.333,42.467 C96.333,43.239 97.083,44.18 97.58,45.285 C98.078,46.394 98.347,47.636 98.389,49.025 C98.439,50.409 98.334,51.852 98.078,53.359 C97.8,55.016 97.434,56.565 96.973,58.008 C96.512,59.447 95.873,60.684 95.051,61.707 C94.228,62.726 93.197,63.475 91.954,63.95 C90.712,64.42 89.187,64.503 87.382,64.201 C87.108,64.155 86.752,64.072 86.304,63.95 C85.861,63.831 85.405,63.644 84.94,63.393 C84.469,63.146 84.016,62.822 83.593,62.424 C83.163,62.023 82.824,61.529 82.583,60.926 L82.363,60.891 L82.025,62.88 L73.623,61.466 L79.235,28.117 L87.957,29.583 L85.881,41.923 z M89.236,52.34 C89.47,50.952 89.483,49.861 89.278,49.067 C89.067,48.276 88.502,47.8 87.561,47.641 C86.72,47.499 86.003,47.745 85.418,48.372 C84.835,49.002 84.4,50.13 84.126,51.756 C83.839,53.473 83.83,54.688 84.094,55.4 C84.364,56.109 84.967,56.547 85.903,56.702 C86.954,56.88 87.711,56.565 88.173,55.761 C88.634,54.954 88.99,53.816 89.236,52.34" fill="#84D0F4"/>
    <path d="M108.952,36.827 L70.763,30.397 L64.338,68.585 L102.522,75.01 z M69.347,25.757 L111.811,32.904 L113.952,33.265 L113.592,35.406 L106.445,77.87 L106.084,80.011 L103.943,79.65 L61.479,72.503 L59.337,72.143 L59.698,70.001 L66.845,27.537 L67.206,25.396 z" fill="#EBECEC"/>
  </g>
  <defs/>
</svg>
